<?xml version="1.0" encoding="UTF-8" standalone="no"?>
<!-- Generator: Adobe Illustrator 16.0.0, SVG Export Plug-In . SVG Version: 6.00 Build 0)  -->

<svg
   xmlns:dc="http://purl.org/dc/elements/1.1/"
   xmlns:cc="http://creativecommons.org/ns#"
   xmlns:rdf="http://www.w3.org/1999/02/22-rdf-syntax-ns#"
   xmlns:svg="http://www.w3.org/2000/svg"
   xmlns="http://www.w3.org/2000/svg"
   xmlns:xlink="http://www.w3.org/1999/xlink"
   xmlns:sodipodi="http://sodipodi.sourceforge.net/DTD/sodipodi-0.dtd"
   xmlns:inkscape="http://www.inkscape.org/namespaces/inkscape"
   version="1.1"
   id="Layer_1"
   x="0px"
   y="0px"
   width="96px"
   height="96px"
   viewBox="0 0 96 96"
   enable-background="new 0 0 96 96"
   xml:space="preserve"
   inkscape:version="0.48.4 r9939"
   sodipodi:docname="bulb.svg"><metadata
     id="metadata57"><rdf:RDF><cc:Work
         rdf:about=""><dc:format>image/svg+xml</dc:format><dc:type
           rdf:resource="http://purl.org/dc/dcmitype/StillImage" /></cc:Work></rdf:RDF></metadata><defs
     id="defs55" /><sodipodi:namedview
     pagecolor="#ffffff"
     bordercolor="#666666"
     borderopacity="1"
     objecttolerance="10"
     gridtolerance="10"
     guidetolerance="10"
     inkscape:pageopacity="0"
     inkscape:pageshadow="2"
     inkscape:window-width="640"
     inkscape:window-height="480"
     id="namedview53"
     showgrid="false"
     inkscape:zoom="2.4583333"
     inkscape:cx="48"
     inkscape:cy="48"
     inkscape:window-x="0"
     inkscape:window-y="24"
     inkscape:window-maximized="0"
     inkscape:current-layer="Layer_1" /><g
     id="g5"><defs
       id="defs7"><rect
         id="SVGID_1_"
         width="96"
         height="96" /></defs><clipPath
       id="SVGID_2_"><use
         xlink:href="#SVGID_1_"
         overflow="visible"
         id="use11" /></clipPath></g><g
     id="g13"><defs
       id="defs15"><rect
         id="SVGID_3_"
         width="96"
         height="96" /></defs><clipPath
       id="SVGID_4_"><use
         xlink:href="#SVGID_3_"
         overflow="visible"
         id="use19" /></clipPath><path
       clip-path="url(#SVGID_4_)"
       fill="#AAE1ED"
       d="M69.496,3.542l-47.191,21.84c-2.507,1.159-3.598,4.131-2.438,6.637   c1.16,2.506,4.131,3.598,6.637,2.438l47.191-21.84c2.507-1.16,3.598-4.131,2.438-6.637C74.974,3.475,72.002,2.383,69.496,3.542"
       id="path21" /><path
       clip-path="url(#SVGID_4_)"
       fill="#2D4D68"
       d="M24.416,36.919c-2.646,0-5.182-1.506-6.364-4.06   c-0.785-1.697-0.862-3.598-0.218-5.353c0.645-1.755,1.934-3.154,3.631-3.939l47.191-21.84c3.504-1.62,7.672-0.089,9.293,3.413   c0.785,1.697,0.863,3.598,0.218,5.353c-0.644,1.755-1.934,3.154-3.631,3.939l-47.191,21.84   C26.396,36.711,25.397,36.919,24.416,36.919 M70.335,5.357l-47.19,21.84c-1.501,0.695-2.157,2.481-1.463,3.982   c0.695,1.502,2.481,2.157,3.983,1.463l47.192-21.84c1.5-0.695,2.156-2.481,1.462-3.982C73.623,5.319,71.839,4.664,70.335,5.357"
       id="path23" /><path
       clip-path="url(#SVGID_4_)"
       fill="#AAE1ED"
       d="M69.496,27.622l-47.191,21.84c-2.507,1.158-3.598,4.131-2.438,6.637   c1.16,2.506,4.131,3.598,6.637,2.438l47.191-21.84c2.507-1.159,3.598-4.131,2.438-6.637C74.974,27.554,72.002,26.461,69.496,27.622   "
       id="path25" /><path
       clip-path="url(#SVGID_4_)"
       fill="#2D4D68"
       d="M24.416,60.998c-2.646,0-5.182-1.506-6.364-4.06   c-1.621-3.502-0.09-7.671,3.412-9.293l47.192-21.839c3.504-1.62,7.672-0.091,9.293,3.413c1.621,3.503,0.09,7.672-3.413,9.292   l-47.191,21.84C26.396,60.79,25.397,60.998,24.416,60.998 M70.335,29.437l-47.19,21.839c-1.501,0.695-2.157,2.482-1.463,3.983   c0.695,1.501,2.481,2.156,3.983,1.463l47.192-21.84c1.5-0.695,2.156-2.481,1.462-3.983C73.623,29.398,71.836,28.744,70.335,29.437"
       id="path27" /><path
       clip-path="url(#SVGID_4_)"
       fill="#AAE1ED"
       d="M69.496,53.464L36.59,68.691c-2.506,1.16-3.597,4.132-2.437,6.639   c1.159,2.506,4.131,3.597,6.637,2.438l32.905-15.229c2.507-1.16,3.598-4.132,2.438-6.638   C74.974,53.396,72.002,52.304,69.496,53.464"
       id="path29" /><path
       clip-path="url(#SVGID_4_)"
       fill="#2D4D68"
       d="M38.7,80.229c-2.645,0-5.181-1.506-6.363-4.061   c-1.621-3.503-0.09-7.672,3.413-9.292l32.905-15.229c3.504-1.621,7.672-0.09,9.293,3.413s0.09,7.671-3.412,9.293L41.629,79.582   C40.682,80.021,39.684,80.229,38.7,80.229 M70.335,55.278L37.43,70.507c-1.502,0.694-2.158,2.481-1.463,3.982   c0.336,0.727,0.936,1.28,1.688,1.556c0.753,0.277,1.567,0.243,2.295-0.093l32.906-15.228c1.5-0.695,2.156-2.482,1.462-3.983   c-0.337-0.727-0.936-1.28-1.688-1.556C71.877,54.908,71.063,54.942,70.335,55.278"
       id="path31" /><path
       clip-path="url(#SVGID_4_)"
       fill="#FFFFFF"
       d="M74,2H22c-2.761,0-5,2.239-5,5s2.239,5,5,5h52c2.761,0,5-2.239,5-5   S76.761,2,74,2"
       id="path33" /><path
       clip-path="url(#SVGID_4_)"
       fill="#2D4D68"
       d="M74,14H22c-3.86,0-7-3.14-7-7s3.14-7,7-7h52c3.86,0,7,3.14,7,7S77.86,14,74,14    M22,4c-1.654,0-3,1.346-3,3s1.346,3,3,3h52c1.654,0,3-1.346,3-3s-1.346-3-3-3H22z"
       id="path35" /><path
       clip-path="url(#SVGID_4_)"
       fill="#FFFFFF"
       d="M74,26H22c-2.761,0-5,2.239-5,5s2.239,5,5,5h52c2.761,0,5-2.239,5-5   S76.761,26,74,26"
       id="path37" /><path
       clip-path="url(#SVGID_4_)"
       fill="#2D4D68"
       d="M74,38H22c-3.86,0-7-3.14-7-7s3.14-7,7-7h52c3.86,0,7,3.14,7,7S77.86,38,74,38    M22,28c-1.654,0-3,1.346-3,3s1.346,3,3,3h52c1.654,0,3-1.346,3-3s-1.346-3-3-3H22z"
       id="path39" /><path
       clip-path="url(#SVGID_4_)"
       fill="#FFFFFF"
       d="M74,50H22c-2.761,0-5,2.239-5,5s2.239,5,5,5h52c2.761,0,5-2.239,5-5   S76.761,50,74,50"
       id="path41" /><path
       clip-path="url(#SVGID_4_)"
       fill="#2D4D68"
       d="M74,62H22c-3.86,0-7-3.14-7-7s3.14-7,7-7h52c3.86,0,7,3.14,7,7S77.86,62,74,62    M22,52c-1.654,0-3,1.346-3,3s1.346,3,3,3h52c1.654,0,3-1.346,3-3s-1.346-3-3-3H22z"
       id="path43" /><path
       clip-path="url(#SVGID_4_)"
       fill="#567B8E"
       d="M62,82H34v7c0,2.761,2.239,5,5,5h18c2.761,0,5-2.239,5-5V82z"
       id="path45" /><path
       clip-path="url(#SVGID_4_)"
       fill="#2D4D68"
       d="M57,96H39c-3.86,0-7-3.14-7-7v-7c0-1.104,0.896-2,2-2h28c1.104,0,2,0.896,2,2v7   C64,92.86,60.86,96,57,96 M36,84v5c0,1.654,1.346,3,3,3h18c1.654,0,3-1.346,3-3v-5H36z"
       id="path47" /><rect
       x="34"
       y="70"
       clip-path="url(#SVGID_4_)"
       fill="#A8C4C6"
       width="28"
       height="12"
       id="rect49" /><path
       clip-path="url(#SVGID_4_)"
       fill="#2D4D68"
       d="M62,84H34c-1.104,0-2-0.896-2-2V70c0-1.104,0.896-2,2-2h28c1.104,0,2,0.896,2,2   v12C64,83.104,63.104,84,62,84 M36,80h24v-8H36V80z"
       id="path51" /></g></svg>